<svg width="1415" height="727" xmlns="http://www.w3.org/2000/svg"><g><path d="M-72,-82L-95,57L63,75Z" fill="#feffff" stroke="#feffff" fill-opacity="1" stroke-opacity="1"/><path d="M-72,-82L63,75L73,-72Z" fill="#fafcff" stroke="#fafcff" fill-opacity="1" stroke-opacity="1"/><path d="M-72,-82L73,-72L237,-74Z" fill="#f6fafd" stroke="#f6fafd" fill-opacity="1" stroke-opacity="1"/><path d="M-72,-82L237,-74L361,-83Z" fill="#eff5fb" stroke="#eff5fb" fill-opacity="1" stroke-opacity="1"/><path d="M-72,-82L361,-83L1426,-90Z" fill="#c9e2ef" stroke="#c9e2ef" fill-opacity="1" stroke-opacity="1"/><path d="M73,-72L63,75L244,75Z" fill="#f2f8fc" stroke="#f2f8fc" fill-opacity="1" stroke-opacity="1"/><path d="M73,-72L244,75L237,-74Z" fill="#eef5fb" stroke="#eef5fb" fill-opacity="1" stroke-opacity="1"/><path d="M237,-74L244,75L361,-83Z" fill="#e8f1f9" stroke="#e8f1f9" fill-opacity="1" stroke-opacity="1"/><path d="M361,-83L244,75L377,92Z" fill="#e5eef8" stroke="#e5eef8" fill-opacity="1" stroke-opacity="1"/><path d="M361,-83L377,92L525,59Z" fill="#dbeaf5" stroke="#dbeaf5" fill-opacity="1" stroke-opacity="1"/><path d="M361,-83L525,59L519,-72Z" fill="#d6e8f3" stroke="#d6e8f3" fill-opacity="1" stroke-opacity="1"/><path d="M361,-83L519,-72L957,-72Z" fill="#c3deee" stroke="#c3deee" fill-opacity="1" stroke-opacity="1"/><path d="M361,-83L957,-72L1277,-88Z" fill="#a3cae4" stroke="#a3cae4" fill-opacity="1" stroke-opacity="1"/><path d="M361,-83L1277,-88L1426,-90Z" fill="#94bcdc" stroke="#94bcdc" fill-opacity="1" stroke-opacity="1"/><path d="M519,-72L525,59L665,-61Z" fill="#c9e2ef" stroke="#c9e2ef" fill-opacity="1" stroke-opacity="1"/><path d="M519,-72L665,-61L957,-72Z" fill="#b5d6ea" stroke="#b5d6ea" fill-opacity="1" stroke-opacity="1"/><path d="M665,-61L525,59L658,69Z" fill="#c2deee" stroke="#c2deee" fill-opacity="1" stroke-opacity="1"/><path d="M665,-61L658,69L827,60Z" fill="#b4d6ea" stroke="#b4d6ea" fill-opacity="1" stroke-opacity="1"/><path d="M665,-61L827,60L837,-60Z" fill="#add1e8" stroke="#add1e8" fill-opacity="1" stroke-opacity="1"/><path d="M665,-61L837,-60L957,-72Z" fill="#a8cee6" stroke="#a8cee6" fill-opacity="1" stroke-opacity="1"/><path d="M837,-60L827,60L957,-72Z" fill="#a2cae3" stroke="#a2cae3" fill-opacity="1" stroke-opacity="1"/><path d="M957,-72L827,60L966,85Z" fill="#9ec6e1" stroke="#9ec6e1" fill-opacity="1" stroke-opacity="1"/><path d="M957,-72L966,85L1131,84Z" fill="#94bcdc" stroke="#94bcdc" fill-opacity="1" stroke-opacity="1"/><path d="M957,-72L1131,84L1145,-70Z" fill="#8fb6d9" stroke="#8fb6d9" fill-opacity="1" stroke-opacity="1"/><path d="M957,-72L1145,-70L1277,-88Z" fill="#8cb0d4" stroke="#8cb0d4" fill-opacity="1" stroke-opacity="1"/><path d="M1145,-70L1131,84L1267,59Z" fill="#88a9cf" stroke="#88a9cf" fill-opacity="1" stroke-opacity="1"/><path d="M1145,-70L1267,59L1277,-88Z" fill="#84a3cb" stroke="#84a3cb" fill-opacity="1" stroke-opacity="1"/><path d="M1277,-88L1267,59L1426,-90Z" fill="#8098c2" stroke="#8098c2" fill-opacity="1" stroke-opacity="1"/><path d="M1426,-90L1267,59L1439,58Z" fill="#8091bd" stroke="#8091bd" fill-opacity="1" stroke-opacity="1"/><path d="M1426,-90L1439,58L1558,-76Z" fill="#8085b4" stroke="#8085b4" fill-opacity="1" stroke-opacity="1"/><path d="M1558,-76L1439,58L1578,83Z" fill="#8080af" stroke="#8080af" fill-opacity="1" stroke-opacity="1"/><path d="M-95,57L-87,536L-64,369Z" fill="#ceefff" stroke="#ceefff" fill-opacity="1" stroke-opacity="1"/><path d="M-95,57L-64,369L-59,228Z" fill="#ecfcff" stroke="#ecfcff" fill-opacity="1" stroke-opacity="1"/><path d="M-95,57L-59,228L63,75Z" fill="#faffff" stroke="#faffff" fill-opacity="1" stroke-opacity="1"/><path d="M63,75L-59,228L86,208Z" fill="#f1fcff" stroke="#f1fcff" fill-opacity="1" stroke-opacity="1"/><path d="M63,75L86,208L244,75Z" fill="#eff7fc" stroke="#eff7fc" fill-opacity="1" stroke-opacity="1"/><path d="M244,75L86,208L219,211Z" fill="#e7f5fb" stroke="#e7f5fb" fill-opacity="1" stroke-opacity="1"/><path d="M244,75L219,211L377,92Z" fill="#e4f1f9" stroke="#e4f1f9" fill-opacity="1" stroke-opacity="1"/><path d="M377,92L219,211L384,243Z" fill="#dbeef8" stroke="#dbeef8" fill-opacity="1" stroke-opacity="1"/><path d="M377,92L384,243L538,225Z" fill="#cfe9f4" stroke="#cfe9f4" fill-opacity="1" stroke-opacity="1"/><path d="M377,92L538,225L525,59Z" fill="#d1e7f2" stroke="#d1e7f2" fill-opacity="1" stroke-opacity="1"/><path d="M525,59L538,225L658,69Z" fill="#c6e1ef" stroke="#c6e1ef" fill-opacity="1" stroke-opacity="1"/><path d="M658,69L538,225L691,210Z" fill="#b9dded" stroke="#b9dded" fill-opacity="1" stroke-opacity="1"/><path d="M658,69L691,210L827,60Z" fill="#b1d5ea" stroke="#b1d5ea" fill-opacity="1" stroke-opacity="1"/><path d="M827,60L691,210L817,221Z" fill="#a6d1e8" stroke="#a6d1e8" fill-opacity="1" stroke-opacity="1"/><path d="M827,60L817,221L966,85Z" fill="#9fcae3" stroke="#9fcae3" fill-opacity="1" stroke-opacity="1"/><path d="M966,85L817,221L980,217Z" fill="#95c5e1" stroke="#95c5e1" fill-opacity="1" stroke-opacity="1"/><path d="M966,85L980,217L1131,84Z" fill="#90bcdc" stroke="#90bcdc" fill-opacity="1" stroke-opacity="1"/><path d="M1131,84L980,217L1138,231Z" fill="#86b6d8" stroke="#86b6d8" fill-opacity="1" stroke-opacity="1"/><path d="M1131,84L1138,231L1262,212Z" fill="#7faacf" stroke="#7faacf" fill-opacity="1" stroke-opacity="1"/><path d="M1131,84L1262,212L1267,59Z" fill="#82a5cb" stroke="#82a5cb" fill-opacity="1" stroke-opacity="1"/><path d="M1267,59L1262,212L1436,217Z" fill="#7898c2" stroke="#7898c2" fill-opacity="1" stroke-opacity="1"/><path d="M1267,59L1436,217L1439,58Z" fill="#7e91bc" stroke="#7e91bc" fill-opacity="1" stroke-opacity="1"/><path d="M1439,58L1436,217L1578,83Z" fill="#7d84b3" stroke="#7d84b3" fill-opacity="1" stroke-opacity="1"/><path d="M1578,83L1436,217L1584,241Z" fill="#7680ae" stroke="#7680ae" fill-opacity="1" stroke-opacity="1"/><path d="M-59,228L-64,369L88,358Z" fill="#cbeeff" stroke="#cbeeff" fill-opacity="1" stroke-opacity="1"/><path d="M-59,228L88,358L86,208Z" fill="#d9f5fe" stroke="#d9f5fe" fill-opacity="1" stroke-opacity="1"/><path d="M86,208L88,358L208,358Z" fill="#c5eafc" stroke="#c5eafc" fill-opacity="1" stroke-opacity="1"/><path d="M86,208L208,358L219,211Z" fill="#d1f0fb" stroke="#d1f0fb" fill-opacity="1" stroke-opacity="1"/><path d="M219,211L208,358L384,243Z" fill="#c7eaf9" stroke="#c7eaf9" fill-opacity="1" stroke-opacity="1"/><path d="M384,243L208,358L370,381Z" fill="#b1def8" stroke="#b1def8" fill-opacity="1" stroke-opacity="1"/><path d="M384,243L370,381L541,357Z" fill="#a6d9f4" stroke="#a6d9f4" fill-opacity="1" stroke-opacity="1"/><path d="M384,243L541,357L538,225Z" fill="#b1dff2" stroke="#b1dff2" fill-opacity="1" stroke-opacity="1"/><path d="M538,225L541,357L668,380Z" fill="#96d1ef" stroke="#96d1ef" fill-opacity="1" stroke-opacity="1"/><path d="M538,225L668,380L691,210Z" fill="#9fd6ed" stroke="#9fd6ed" fill-opacity="1" stroke-opacity="1"/><path d="M691,210L668,380L817,221Z" fill="#92ceea" stroke="#92ceea" fill-opacity="1" stroke-opacity="1"/><path d="M817,221L668,380L843,362Z" fill="#7cc1e8" stroke="#7cc1e8" fill-opacity="1" stroke-opacity="1"/><path d="M817,221L843,362L980,217Z" fill="#81c3e3" stroke="#81c3e3" fill-opacity="1" stroke-opacity="1"/><path d="M980,217L843,362L995,375Z" fill="#6bb4e0" stroke="#6bb4e0" fill-opacity="1" stroke-opacity="1"/><path d="M980,217L995,375L1138,231Z" fill="#70b3db" stroke="#70b3db" fill-opacity="1" stroke-opacity="1"/><path d="M1138,231L995,375L1119,385Z" fill="#5aa3d8" stroke="#5aa3d8" fill-opacity="1" stroke-opacity="1"/><path d="M1138,231L1119,385L1294,389Z" fill="#5197cf" stroke="#5197cf" fill-opacity="1" stroke-opacity="1"/><path d="M1138,231L1294,389L1262,212Z" fill="#619bca" stroke="#619bca" fill-opacity="1" stroke-opacity="1"/><path d="M1262,212L1294,389L1436,217Z" fill="#5e90c1" stroke="#5e90c1" fill-opacity="1" stroke-opacity="1"/><path d="M1436,217L1294,389L1418,387Z" fill="#4b7ebc" stroke="#4b7ebc" fill-opacity="1" stroke-opacity="1"/><path d="M1436,217L1418,387L1584,241Z" fill="#5b7cb3" stroke="#5b7cb3" fill-opacity="1" stroke-opacity="1"/><path d="M1584,241L1418,387L1582,383Z" fill="#496daf" stroke="#496daf" fill-opacity="1" stroke-opacity="1"/><path d="M1584,241L1582,383L1583,512Z" fill="#3c65a8" stroke="#3c65a8" fill-opacity="1" stroke-opacity="1"/><path d="M1584,241L1583,512L1586,812Z" fill="#194998" stroke="#194998" fill-opacity="1" stroke-opacity="1"/><path d="M-64,369L-87,536L67,514Z" fill="#a1d2f4" stroke="#a1d2f4" fill-opacity="1" stroke-opacity="1"/><path d="M-64,369L67,514L88,358Z" fill="#acdbfa" stroke="#acdbfa" fill-opacity="1" stroke-opacity="1"/><path d="M88,358L67,514L213,510Z" fill="#99cef2" stroke="#99cef2" fill-opacity="1" stroke-opacity="1"/><path d="M88,358L213,510L208,358Z" fill="#a3d6f7" stroke="#a3d6f7" fill-opacity="1" stroke-opacity="1"/><path d="M208,358L213,510L370,381Z" fill="#9bd0f4" stroke="#9bd0f4" fill-opacity="1" stroke-opacity="1"/><path d="M370,381L213,510L376,533Z" fill="#88c2ed" stroke="#88c2ed" fill-opacity="1" stroke-opacity="1"/><path d="M370,381L376,533L535,538Z" fill="#7bbbe7" stroke="#7bbbe7" fill-opacity="1" stroke-opacity="1"/><path d="M370,381L535,538L541,357Z" fill="#84c4ec" stroke="#84c4ec" fill-opacity="1" stroke-opacity="1"/><path d="M541,357L535,538L668,380Z" fill="#77bee8" stroke="#77bee8" fill-opacity="1" stroke-opacity="1"/><path d="M668,380L535,538L694,521Z" fill="#62afe1" stroke="#62afe1" fill-opacity="1" stroke-opacity="1"/><path d="M668,380L694,521L821,510Z" fill="#57a9de" stroke="#57a9de" fill-opacity="1" stroke-opacity="1"/><path d="M668,380L821,510L843,362Z" fill="#5fafe2" stroke="#5fafe2" fill-opacity="1" stroke-opacity="1"/><path d="M843,362L821,510L986,520Z" fill="#469ed8" stroke="#469ed8" fill-opacity="1" stroke-opacity="1"/><path d="M843,362L986,520L995,375Z" fill="#4ca1da" stroke="#4ca1da" fill-opacity="1" stroke-opacity="1"/><path d="M995,375L986,520L1119,385Z" fill="#4297d5" stroke="#4297d5" fill-opacity="1" stroke-opacity="1"/><path d="M1119,385L986,520L1138,529Z" fill="#3188cc" stroke="#3188cc" fill-opacity="1" stroke-opacity="1"/><path d="M1119,385L1138,529L1275,515Z" fill="#2b7dc3" stroke="#2b7dc3" fill-opacity="1" stroke-opacity="1"/><path d="M1119,385L1275,515L1294,389Z" fill="#327fc4" stroke="#327fc4" fill-opacity="1" stroke-opacity="1"/><path d="M1294,389L1275,515L1407,524Z" fill="#236ab6" stroke="#236ab6" fill-opacity="1" stroke-opacity="1"/><path d="M1294,389L1407,524L1418,387Z" fill="#2d6db6" stroke="#2d6db6" fill-opacity="1" stroke-opacity="1"/><path d="M1418,387L1407,524L1583,512Z" fill="#2358a9" stroke="#2358a9" fill-opacity="1" stroke-opacity="1"/><path d="M1418,387L1583,512L1582,383Z" fill="#2f5ca8" stroke="#2f5ca8" fill-opacity="1" stroke-opacity="1"/><path d="M-87,536L-82,680L72,671Z" fill="#90aad9" stroke="#90aad9" fill-opacity="1" stroke-opacity="1"/><path d="M-87,536L72,671L67,514Z" fill="#8eb8e5" stroke="#8eb8e5" fill-opacity="1" stroke-opacity="1"/><path d="M67,514L72,671L213,510Z" fill="#86b6e5" stroke="#86b6e5" fill-opacity="1" stroke-opacity="1"/><path d="M213,510L72,671L218,677Z" fill="#82a4d7" stroke="#82a4d7" fill-opacity="1" stroke-opacity="1"/><path d="M213,510L218,677L376,533Z" fill="#7cade0" stroke="#7cade0" fill-opacity="1" stroke-opacity="1"/><path d="M376,533L218,677L371,667Z" fill="#779bd3" stroke="#779bd3" fill-opacity="1" stroke-opacity="1"/><path d="M376,533L371,667L535,538Z" fill="#6da4d9" stroke="#6da4d9" fill-opacity="1" stroke-opacity="1"/><path d="M535,538L371,667L526,686Z" fill="#6792cc" stroke="#6792cc" fill-opacity="1" stroke-opacity="1"/><path d="M535,538L526,686L668,692Z" fill="#5a8ac7" stroke="#5a8ac7" fill-opacity="1" stroke-opacity="1"/><path d="M535,538L668,692L694,521Z" fill="#5396d1" stroke="#5396d1" fill-opacity="1" stroke-opacity="1"/><path d="M694,521L668,692L813,664Z" fill="#4582c5" stroke="#4582c5" fill-opacity="1" stroke-opacity="1"/><path d="M694,521L813,664L821,510Z" fill="#418fd0" stroke="#418fd0" fill-opacity="1" stroke-opacity="1"/><path d="M821,510L813,664L965,659Z" fill="#357bc2" stroke="#357bc2" fill-opacity="1" stroke-opacity="1"/><path d="M821,510L965,659L986,520Z" fill="#3184c9" stroke="#3184c9" fill-opacity="1" stroke-opacity="1"/><path d="M986,520L965,659L1128,660Z" fill="#266cb9" stroke="#266cb9" fill-opacity="1" stroke-opacity="1"/><path d="M986,520L1128,660L1138,529Z" fill="#2272bf" stroke="#2272bf" fill-opacity="1" stroke-opacity="1"/><path d="M1138,529L1128,660L1265,680Z" fill="#1b57ab" stroke="#1b57ab" fill-opacity="1" stroke-opacity="1"/><path d="M1138,529L1265,680L1275,515Z" fill="#185fb1" stroke="#185fb1" fill-opacity="1" stroke-opacity="1"/><path d="M1275,515L1265,680L1411,670Z" fill="#12469e" stroke="#12469e" fill-opacity="1" stroke-opacity="1"/><path d="M1275,515L1411,670L1407,524Z" fill="#1350a5" stroke="#1350a5" fill-opacity="1" stroke-opacity="1"/><path d="M1407,524L1411,670L1579,666Z" fill="#123491" stroke="#123491" fill-opacity="1" stroke-opacity="1"/><path d="M1407,524L1579,666L1583,512Z" fill="#133d97" stroke="#133d97" fill-opacity="1" stroke-opacity="1"/><path d="M1583,512L1579,666L1586,812Z" fill="#11217c" stroke="#11217c" fill-opacity="1" stroke-opacity="1"/><path d="M-82,680L-73,818L63,825Z" fill="#8c80b9" stroke="#8c80b9" fill-opacity="1" stroke-opacity="1"/><path d="M-82,680L63,825L72,671Z" fill="#8a8cc4" stroke="#8a8cc4" fill-opacity="1" stroke-opacity="1"/><path d="M72,671L63,825L218,677Z" fill="#8388c2" stroke="#8388c2" fill-opacity="1" stroke-opacity="1"/><path d="M218,677L63,825L244,836Z" fill="#7e76b4" stroke="#7e76b4" fill-opacity="1" stroke-opacity="1"/><path d="M218,677L244,836L371,667Z" fill="#7880bd" stroke="#7880bd" fill-opacity="1" stroke-opacity="1"/><path d="M371,667L244,836L389,820Z" fill="#736fb2" stroke="#736fb2" fill-opacity="1" stroke-opacity="1"/><path d="M371,667L389,820L526,686Z" fill="#6a7ab9" stroke="#6a7ab9" fill-opacity="1" stroke-opacity="1"/><path d="M526,686L389,820L541,822Z" fill="#6367ac" stroke="#6367ac" fill-opacity="1" stroke-opacity="1"/><path d="M526,686L541,822L668,692Z" fill="#586eb2" stroke="#586eb2" fill-opacity="1" stroke-opacity="1"/><path d="M668,692L541,822L657,839Z" fill="#505ea5" stroke="#505ea5" fill-opacity="1" stroke-opacity="1"/><path d="M668,692L657,839L815,808Z" fill="#4457a3" stroke="#4457a3" fill-opacity="1" stroke-opacity="1"/><path d="M668,692L815,808L813,664Z" fill="#3f63ae" stroke="#3f63ae" fill-opacity="1" stroke-opacity="1"/><path d="M813,664L815,808L965,659Z" fill="#345eac" stroke="#345eac" fill-opacity="1" stroke-opacity="1"/><path d="M965,659L815,808L983,841Z" fill="#2c489c" stroke="#2c489c" fill-opacity="1" stroke-opacity="1"/><path d="M965,659L983,841L1128,660Z" fill="#244da2" stroke="#244da2" fill-opacity="1" stroke-opacity="1"/><path d="M1128,660L983,841L1141,819Z" fill="#1e3793" stroke="#1e3793" fill-opacity="1" stroke-opacity="1"/><path d="M1128,660L1141,819L1265,680Z" fill="#183b95" stroke="#183b95" fill-opacity="1" stroke-opacity="1"/><path d="M1265,680L1141,819L1265,839Z" fill="#142584" stroke="#142584" fill-opacity="1" stroke-opacity="1"/><path d="M1265,680L1265,839L1439,805Z" fill="#0f197c" stroke="#0f197c" fill-opacity="1" stroke-opacity="1"/><path d="M1265,680L1439,805L1411,670Z" fill="#102384" stroke="#102384" fill-opacity="1" stroke-opacity="1"/><path d="M1411,670L1439,805L1579,666Z" fill="#10187b" stroke="#10187b" fill-opacity="1" stroke-opacity="1"/><path d="M1579,666L1439,805L1586,812Z" fill="#0f056b" stroke="#0f056b" fill-opacity="1" stroke-opacity="1"/><path d="M-73,818L244,836L63,825Z" fill="#847aac" stroke="#847aac" fill-opacity="1" stroke-opacity="1"/><path d="M244,836L657,839L389,820Z" fill="#686aa2" stroke="#686aa2" fill-opacity="1" stroke-opacity="1"/><path d="M389,820L657,839L541,822Z" fill="#5d659f" stroke="#5d659f" fill-opacity="1" stroke-opacity="1"/><path d="M657,839L983,841L815,808Z" fill="#364e94" stroke="#364e94" fill-opacity="1" stroke-opacity="1"/><path d="M983,841L1265,839L1141,819Z" fill="#193081" stroke="#193081" fill-opacity="1" stroke-opacity="1"/><path d="M1265,839L1586,812L1439,805Z" fill="#0e0b68" stroke="#0e0b68" fill-opacity="1" stroke-opacity="1"/></g></svg>